<svg width="634" height="920" viewBox="0 0 634 920" fill="none" xmlns="http://www.w3.org/2000/svg">
<path d="M179.726 782.2L166.618 745.97L454.876 640.465L467.984 676.694L179.726 782.2Z" fill="white"/>
<path d="M179.726 859.302L166.618 823.073L454.876 717.586L467.984 753.815L179.726 859.302Z" fill="white"/>
<path d="M224.575 920L211.467 883.771L410.027 811.109L423.136 847.339L224.575 920Z" fill="white"/>
<path d="M264.966 321.998H226.396V433.815H264.966V321.998Z" fill="#FFC306"/>
<path d="M332.996 321.998H294.426V433.815H332.996V321.998Z" fill="#FFC306"/>
<path d="M401.026 321.998H362.455V433.815H401.026V321.998Z" fill="#FFC306"/>
<path d="M468.814 321.998H430.482V490.155C444.74 479.528 457.616 467.166 468.814 453.355V321.998Z" fill="white"/>
<path d="M317.181 0C142.242 0 0 142.692 0 318.08C0 429.768 59.7063 534.427 156.197 592.755L190.239 580.298V321.999H151.834V543.498C81.0076 490.267 38.2761 406.639 38.2761 318.08C38.2761 163.944 163.396 38.6399 317.181 38.6399C470.396 38.6399 595.056 163.944 595.056 318.08C594.937 370.886 579.937 422.592 551.775 467.272C523.613 511.953 483.427 547.801 435.821 570.712L165.697 668.783L178.714 705.05L449.721 606.647L451.378 605.966C561.935 553.655 633.332 440.642 633.332 318.08C633.332 142.692 491.569 0 317.181 0Z" fill="white"/>
</svg>
